<?xml version="1.0" encoding="UTF-8" standalone="no"?>
<svg
        xmlns:dc="http://purl.org/dc/elements/1.1/"
        xmlns:cc="http://creativecommons.org/ns#"
        xmlns:rdf="http://www.w3.org/1999/02/22-rdf-syntax-ns#"
        xmlns="http://www.w3.org/2000/svg"
        xmlns:sodipodi="http://sodipodi.sourceforge.net/DTD/sodipodi-0.dtd"
        xmlns:inkscape="http://www.inkscape.org/namespaces/inkscape"
        version="1.1"
        x="0px"
        y="0px"
        viewBox="0 0 48 48"
        enable-background="new 0 0 48 48"
        xml:space="preserve"
        id="svg10"
        sodipodi:docname="noun_magnifier_131871.svg"
        width="48"
        height="48"
        inkscape:version="0.92.4 (5da689c313, 2019-01-14)"><metadata
     id="metadata16"><rdf:RDF><cc:Work
         rdf:about=""><dc:format>image/svg+xml</dc:format><dc:type
           rdf:resource="http://purl.org/dc/dcmitype/StillImage" /><dc:title></dc:title></cc:Work></rdf:RDF></metadata><defs
     id="defs14" /><sodipodi:namedview
     pagecolor="#ffffff"
     bordercolor="#666666"
     borderopacity="1"
     objecttolerance="10"
     gridtolerance="10"
     guidetolerance="10"
     inkscape:pageopacity="0"
     inkscape:pageshadow="2"
     inkscape:window-width="1366"
     inkscape:window-height="705"
     id="namedview12"
     showgrid="false"
     fit-margin-top="0"
     fit-margin-left="0"
     fit-margin-right="0"
     fit-margin-bottom="0"
     inkscape:zoom="3.9333333"
     inkscape:cx="65.313559"
     inkscape:cy="17.482"
     inkscape:window-x="-8"
     inkscape:window-y="-8"
     inkscape:window-maximized="1"
     inkscape:current-layer="svg10" /><g
     id="g4"
     transform="translate(-3.4430544e-5)"><path
       d="M 47.008,41.814 32.016,27.129 c 1.754,-2.77 2.68,-5.968 2.68,-9.262 C 34.696,8.302 26.913,0.518 17.348,0.518 7.783,0.518 0,8.301 0,17.867 c 0,9.565 7.783,17.346 17.348,17.346 3.654,0 7.151,-1.133 10.127,-3.281 l 14.908,14.605 c 0.621,0.609 1.441,0.945 2.313,0.945 0.896,0 1.736,-0.354 2.363,-0.994 1.274,-1.302 1.252,-3.398 -0.051,-4.674 z M 17.348,30.418 c -6.92,0 -12.55,-5.631 -12.55,-12.551 0,-6.92 5.63,-12.55 12.55,-12.55 6.92,0 12.549,5.63 12.549,12.55 0,3.259 -1.242,6.347 -3.5,8.696 -2.39,2.486 -5.604,3.855 -9.049,3.855 z"
       id="path2"
       inkscape:connector-curvature="0" /></g></svg>
